<svg width="32" height="30" viewBox="0 0 32 30" fill="none" xmlns="http://www.w3.org/2000/svg">
<rect y="0.339905" width="32" height="29.3202" rx="5.69362" fill="white"/>
<mask id="path-2-inside-1_1_1260" fill="white">
<path fill-rule="evenodd" clip-rule="evenodd" d="M8.04116 7.66576L11.5333 3.45929L11.4744 12.8828L8.0637 12.8526L8.06637 16.3296L11.4525 16.3775L11.4158 22.2461L7.93896 22.2244L8.04116 7.66576ZM11.5435 16.3788L11.4525 16.3775L11.4744 12.8828L11.5809 12.8837L11.5435 16.3788ZM14.8605 16.4258L11.5435 16.3788L11.4828 22.0486L14.7474 26.3144L14.8605 16.4258ZM14.9007 12.9131L11.5809 12.8837L11.6386 7.49046L14.9622 7.52846L14.9007 12.9131ZM14.9539 12.9136L14.9007 12.9131L14.8605 16.4258L14.9458 16.427L14.872 26.5401L18.3698 22.3383L18.3698 17.2282L24.0278 24.3271L24.0277 24.3255L24.0609 24.3673L23.7869 9.60814L20.4811 5.59174L20.5861 14.5531L19.405 13.0485L19.1681 12.7495L18.3698 11.7334V11.7018L15.6941 8.32794L15.0241 7.47531L15.024 7.4831L15.0112 7.46695L14.9944 9.7809L14.9539 12.9136ZM14.9715 12.9137L14.9944 9.7809L15.024 7.4831L15.6941 8.32794L18.3698 11.7334V11.7417L18.3288 11.6899L17.6926 12.9378L14.9715 12.9137ZM14.9715 12.9137L14.9711 12.9641L14.9535 12.942L14.9539 12.9136L14.9715 12.9137ZM17.763 16.4669L14.9458 16.427L14.9711 12.9641L17.763 16.4669ZM18.3698 11.7417L19.1681 12.7495L20.5862 14.5543L20.5861 14.5531L20.5927 14.5614L23.8761 16.5535L18.3698 16.4755L18.3698 11.7417ZM18.3698 16.4755L18.3698 17.2282L17.763 16.4669L18.3698 16.4755Z"/>
</mask>
<path fill-rule="evenodd" clip-rule="evenodd" d="M8.04116 7.66576L11.5333 3.45929L11.4744 12.8828L8.0637 12.8526L8.06637 16.3296L11.4525 16.3775L11.4158 22.2461L7.93896 22.2244L8.04116 7.66576ZM11.5435 16.3788L11.4525 16.3775L11.4744 12.8828L11.5809 12.8837L11.5435 16.3788ZM14.8605 16.4258L11.5435 16.3788L11.4828 22.0486L14.7474 26.3144L14.8605 16.4258ZM14.9007 12.9131L11.5809 12.8837L11.6386 7.49046L14.9622 7.52846L14.9007 12.9131ZM14.9539 12.9136L14.9007 12.9131L14.8605 16.4258L14.9458 16.427L14.872 26.5401L18.3698 22.3383L18.3698 17.2282L24.0278 24.3271L24.0277 24.3255L24.0609 24.3673L23.7869 9.60814L20.4811 5.59174L20.5861 14.5531L19.405 13.0485L19.1681 12.7495L18.3698 11.7334V11.7018L15.6941 8.32794L15.0241 7.47531L15.024 7.4831L15.0112 7.46695L14.9944 9.7809L14.9539 12.9136ZM14.9715 12.9137L14.9944 9.7809L15.024 7.4831L15.6941 8.32794L18.3698 11.7334V11.7417L18.3288 11.6899L17.6926 12.9378L14.9715 12.9137ZM14.9715 12.9137L14.9711 12.9641L14.9535 12.942L14.9539 12.9136L14.9715 12.9137ZM17.763 16.4669L14.9458 16.427L14.9711 12.9641L17.763 16.4669ZM18.3698 11.7417L19.1681 12.7495L20.5862 14.5543L20.5861 14.5531L20.5927 14.5614L23.8761 16.5535L18.3698 16.4755L18.3698 11.7417ZM18.3698 16.4755L18.3698 17.2282L17.763 16.4669L18.3698 16.4755Z" fill="#181D36"/>
<path d="M11.5333 3.45929L11.6871 3.46025L11.6898 3.02978L11.4149 3.361L11.5333 3.45929ZM8.04116 7.66576L7.92276 7.56747L7.88767 7.60974L7.88728 7.66468L8.04116 7.66576ZM8.0637 12.8526L8.06506 12.6988L7.9097 12.6974L7.90982 12.8527L8.0637 12.8526ZM8.06637 16.3296L7.91249 16.3297L7.91261 16.4813L8.06419 16.4834L8.06637 16.3296ZM11.4158 22.2461L11.4149 22.4L11.5688 22.401L11.5697 22.2471L11.4158 22.2461ZM7.93896 22.2244L7.78509 22.2233L7.78401 22.3773L7.938 22.3783L7.93896 22.2244ZM11.4828 22.0486L11.3289 22.0469L11.3284 22.1L11.3606 22.1421L11.4828 22.0486ZM14.7474 26.3144L14.6252 26.4079L14.8962 26.762L14.9013 26.3162L14.7474 26.3144ZM11.6386 7.49046L11.6403 7.33658L11.4863 7.33482L11.4847 7.48881L11.6386 7.49046ZM14.9622 7.52846L15.1161 7.53022L15.1179 7.37634L14.964 7.37459L14.9622 7.52846ZM14.872 26.5401L14.7181 26.539L14.715 26.9692L14.9903 26.6385L14.872 26.5401ZM18.3698 22.3383L18.4881 22.4368L18.5237 22.394L18.5237 22.3383H18.3698ZM24.0278 24.3271L23.9075 24.423L24.2158 24.8098L24.1813 24.3163L24.0278 24.3271ZM24.0277 24.3255L24.1482 24.2298L23.8396 23.8414L23.8742 24.3363L24.0277 24.3255ZM24.0609 24.3673L23.9404 24.463L24.2232 24.8189L24.2147 24.3644L24.0609 24.3673ZM23.7869 9.60814L23.9407 9.60528L23.9397 9.55171L23.9057 9.51034L23.7869 9.60814ZM20.4811 5.59174L20.5999 5.49395L20.3221 5.15643L20.3272 5.59355L20.4811 5.59174ZM19.405 13.0485L19.526 12.9535L19.5256 12.9529L19.405 13.0485ZM18.3698 11.7018H18.5237V11.6482L18.4904 11.6062L18.3698 11.7018ZM15.0241 7.47531L15.1451 7.38023L14.8759 7.03756L14.8703 7.47332L15.0241 7.47531ZM15.0112 7.46695L15.1318 7.37133L14.8606 7.0293L14.8574 7.46583L15.0112 7.46695ZM18.3288 11.6899L18.4494 11.5943L18.3005 11.4064L18.1917 11.62L18.3288 11.6899ZM17.6926 12.9378L17.6913 13.0917L17.7865 13.0925L17.8297 13.0077L17.6926 12.9378ZM14.9535 12.942L14.7996 12.94L14.7989 12.9949L14.8332 13.0379L14.9535 12.942ZM20.5862 14.5543L20.4652 14.6494L20.7455 15.0061L20.74 14.5525L20.5862 14.5543ZM20.5927 14.5614L20.4716 14.6564L20.4889 14.6784L20.5128 14.693L20.5927 14.5614ZM23.8761 16.5535L23.8739 16.7073L24.4395 16.7153L23.9559 16.4219L23.8761 16.5535ZM11.4149 3.361L7.92276 7.56747L8.15956 7.76406L11.6517 3.55758L11.4149 3.361ZM11.6282 12.8838L11.6871 3.46025L11.3794 3.45833L11.3205 12.8818L11.6282 12.8838ZM8.06234 13.0065L11.473 13.0367L11.4757 12.7289L8.06506 12.6988L8.06234 13.0065ZM8.22025 16.3295L8.21758 12.8525L7.90982 12.8527L7.91249 16.3297L8.22025 16.3295ZM11.4547 16.2237L8.06855 16.1757L8.06419 16.4834L11.4503 16.5314L11.4547 16.2237ZM11.5697 22.2471L11.6064 16.3785L11.2986 16.3766L11.262 22.2451L11.5697 22.2471ZM7.938 22.3783L11.4149 22.4L11.4168 22.0922L7.93993 22.0705L7.938 22.3783ZM7.88728 7.66468L7.78509 22.2233L8.09284 22.2255L8.19504 7.66684L7.88728 7.66468ZM11.4503 16.5314L11.5413 16.5327L11.5456 16.225L11.4547 16.2237L11.4503 16.5314ZM11.3205 12.8818L11.2986 16.3766L11.6064 16.3785L11.6282 12.8838L11.3205 12.8818ZM11.5822 12.7299L11.4757 12.7289L11.473 13.0367L11.5795 13.0376L11.5822 12.7299ZM11.427 12.8821L11.3896 16.3772L11.6973 16.3805L11.7347 12.8854L11.427 12.8821ZM11.5413 16.5327L14.8583 16.5797L14.8627 16.2719L11.5456 16.225L11.5413 16.5327ZM11.3896 16.3772L11.3289 22.0469L11.6367 22.0502L11.6973 16.3805L11.3896 16.3772ZM11.3606 22.1421L14.6252 26.4079L14.8696 26.2209L11.605 21.9551L11.3606 22.1421ZM14.9013 26.3162L15.0144 16.4275L14.7066 16.424L14.5936 26.3127L14.9013 26.3162ZM14.902 12.7592L11.5822 12.7299L11.5795 13.0376L14.8993 13.067L14.902 12.7592ZM11.4847 7.48881L11.427 12.8821L11.7347 12.8854L11.7924 7.4921L11.4847 7.48881ZM14.964 7.37459L11.6403 7.33658L11.6368 7.64433L14.9605 7.68233L14.964 7.37459ZM15.0545 12.9149L15.1161 7.53022L14.8084 7.5267L14.7468 12.9114L15.0545 12.9149ZM14.9552 12.7597L14.902 12.7592L14.8993 13.067L14.9525 13.0675L14.9552 12.7597ZM15.0144 16.4275L15.0545 12.9149L14.7468 12.9114L14.7066 16.424L15.0144 16.4275ZM14.8583 16.5797L14.9437 16.5809L14.948 16.2731L14.8627 16.2719L14.8583 16.5797ZM15.0259 26.5412L15.0997 16.4281L14.792 16.4259L14.7181 26.539L15.0259 26.5412ZM18.2515 22.2399L14.7537 26.4416L14.9903 26.6385L18.4881 22.4368L18.2515 22.2399ZM18.2159 17.2282L18.2159 22.3383H18.5237L18.5237 17.2282H18.2159ZM18.2495 17.3241L23.9075 24.423L24.1481 24.2311L18.4901 17.1323L18.2495 17.3241ZM24.1813 24.3163L24.1812 24.3148L23.8742 24.3363L23.8743 24.3378L24.1813 24.3163ZM23.9072 24.4213L23.9404 24.463L24.1814 24.2715L24.1482 24.2298L23.9072 24.4213ZM24.2147 24.3644L23.9407 9.60528L23.633 9.61099L23.907 24.3701L24.2147 24.3644ZM23.9057 9.51034L20.5999 5.49395L20.3623 5.68954L23.6681 9.70593L23.9057 9.51034ZM20.3272 5.59355L20.4323 14.5549L20.74 14.5513L20.6349 5.58994L20.3272 5.59355ZM20.7072 14.4581L19.526 12.9535L19.2839 13.1435L20.4651 14.6481L20.7072 14.4581ZM19.5256 12.9529L19.2888 12.654L19.0475 12.8451L19.2843 13.144L19.5256 12.9529ZM19.2891 12.6544L18.4908 11.6384L18.2488 11.8285L19.0471 12.8446L19.2891 12.6544ZM18.2159 11.7018V11.7334H18.5237V11.7018H18.2159ZM15.5735 8.42356L18.2492 11.7974L18.4904 11.6062L15.8146 8.23232L15.5735 8.42356ZM15.8151 8.23287L15.1451 7.38023L14.9031 7.57038L15.5731 8.42301L15.8151 8.23287ZM14.8703 7.47332L14.8702 7.48111L15.1779 7.48508L15.178 7.47729L14.8703 7.47332ZM14.8907 7.56257L14.9035 7.57871L15.1446 7.38748L15.1318 7.37133L14.8907 7.56257ZM15.1482 9.78203L15.1651 7.46808L14.8574 7.46583L14.8405 9.77978L15.1482 9.78203ZM14.8405 9.77891L14.8 12.9116L15.1077 12.9156L15.1482 9.78289L14.8405 9.77891ZM15.1254 12.9149L15.1482 9.78203L14.8405 9.77978L14.8176 12.9126L15.1254 12.9149ZM14.8702 7.48111L14.8405 9.77891L15.1482 9.78289L15.1779 7.48508L14.8702 7.48111ZM14.9035 7.57871L15.5735 8.42356L15.8146 8.23232L15.1446 7.38748L14.9035 7.57871ZM18.4908 11.6384L15.8151 8.23287L15.5731 8.42301L18.2488 11.8285L18.4908 11.6384ZM18.2159 11.7334V11.7417H18.5237V11.7334H18.2159ZM18.2081 11.7854L18.2492 11.8372L18.4904 11.6461L18.4494 11.5943L18.2081 11.7854ZM17.8297 13.0077L18.4658 11.7598L18.1917 11.62L17.5555 12.8679L17.8297 13.0077ZM14.9701 13.0676L17.6913 13.0917L17.694 12.7839L14.9728 12.7599L14.9701 13.0676ZM15.125 12.9652L15.1254 12.9149L14.8176 12.9126L14.8172 12.9629L15.125 12.9652ZM15.0915 12.8681L15.0738 12.846L14.8332 13.0379L14.8508 13.06L15.0915 12.8681ZM15.1074 12.9439L15.1077 12.9156L14.8 12.9116L14.7996 12.94L15.1074 12.9439ZM14.9525 13.0675L14.9701 13.0676L14.9728 12.7599L14.9552 12.7597L14.9525 13.0675ZM14.9437 16.5809L17.7608 16.6208L17.7652 16.313L14.948 16.2731L14.9437 16.5809ZM15.0997 16.4281L15.125 12.9652L14.8172 12.9629L14.792 16.4259L15.0997 16.4281ZM17.8833 16.371L15.0915 12.8681L14.8508 13.06L17.6427 16.5628L17.8833 16.371ZM18.2492 11.8372L19.0475 12.8451L19.2888 12.654L18.4904 11.6461L18.2492 11.8372ZM19.0471 12.8446L20.4652 14.6494L20.7072 14.4592L19.2891 12.6544L19.0471 12.8446ZM20.74 14.5525L20.74 14.5513L20.4323 14.5549L20.4323 14.5561L20.74 14.5525ZM20.4651 14.6481L20.4716 14.6564L20.7137 14.4664L20.7072 14.4581L20.4651 14.6481ZM20.5128 14.693L23.7962 16.685L23.9559 16.4219L20.6725 14.4298L20.5128 14.693ZM23.8782 16.3996L18.372 16.3216L18.3676 16.6293L23.8739 16.7073L23.8782 16.3996ZM18.2159 11.7417L18.2159 16.4755H18.5237L18.5237 11.7417H18.2159ZM18.2159 16.4755L18.2159 17.2282H18.5237L18.5237 16.4755H18.2159ZM17.6427 16.5628L18.2495 17.3241L18.4901 17.1323L17.8833 16.371L17.6427 16.5628ZM18.372 16.3216L17.7652 16.313L17.7608 16.6208L18.3676 16.6293L18.372 16.3216Z" fill="#181D36" mask="url(#path-2-inside-1_1_1260)"/>
</svg>
