<svg width="458" height="443" viewBox="0 0 458 443" fill="none" xmlns="http://www.w3.org/2000/svg">
<path d="M417.995 91.815C413.601 85.3037 407.296 79.2032 398.601 77.4644C377.806 73.3054 374.241 92.9124 370.082 98.854C365.923 104.796 360.576 92.9124 349.881 94.6949C339.186 96.4773 340.375 104.795 335.621 107.172C330.868 109.549 328.492 103.013 322.55 103.607C316.608 104.201 314.232 111.331 310.073 113.114C305.914 114.896 307.102 108.36 301.755 109.549C296.407 110.737 291.654 114.302 288.683 114.896C285.713 115.49 456.234 133.909 456.234 133.909C456.234 133.909 453.882 122.164 446.727 115.01C442.568 110.851 434.845 107.172 426.527 110.737C426.527 110.737 425.15 105.116 421.842 98.4608" stroke="#B2B2B2" stroke-linecap="round" stroke-linejoin="round"/>
<path d="M127.619 159.278C125.278 158.223 122.575 157.548 119.4 158.077C108.705 159.859 109.894 168.177 105.141 170.554C100.387 172.931 98.0107 166.395 92.0693 166.989C86.1277 167.583 83.7511 174.713 79.592 176.496C75.433 178.278 76.6213 171.742 71.2739 172.931C65.9265 174.119 61.1733 177.684 58.2025 178.278C55.2317 178.872 225.754 197.291 225.754 197.291C225.754 197.291 223.401 185.546 216.246 178.391C212.087 174.232 204.364 170.554 196.046 174.119C196.046 174.119 188.916 145.005 168.121 140.846C147.325 136.687 143.76 156.294 139.601 162.236C138.139 164.325 136.53 164.21 134.593 163.261" stroke="#B2B2B2" stroke-linecap="round" stroke-linejoin="round"/>
<path d="M81.8033 66.6459C96.7978 68.2922 109.319 69.6447 109.319 69.6447C109.319 69.6447 108.227 64.194 104.907 60.8737C102.977 58.9436 99.3925 57.2364 95.5321 58.8908C95.5321 58.8908 92.2233 45.3796 82.5723 43.4494C72.9214 41.5192 71.267 50.6186 69.3368 53.376C67.4066 56.1335 64.9249 50.6186 59.9616 51.4459C54.9983 52.2731 55.5498 56.1335 53.3439 57.2364C51.138 58.3394 50.035 55.3062 47.2776 55.582C44.5201 55.8577 43.4172 59.1666 41.487 59.9938C39.5569 60.8211 40.1083 57.7879 37.6266 58.3394C35.145 58.8908 32.9391 60.5453 31.5603 60.821C30.7902 60.9751 55.1442 63.7104 76.7938 66.095" stroke="#B2B2B2" stroke-linecap="round" stroke-linejoin="round"/>
<path d="M450.177 314.965C447.154 310.343 444.517 305.85 444.517 302.973C444.517 297.024 429.343 289.387 430.665 283.437C431.987 277.488 375.139 196.843 368.529 196.843C361.919 196.843 330.19 231.878 330.19 231.878C330.19 231.878 324.24 229.895 318.291 227.25C312.342 224.606 258.799 264.929 250.867 264.929C242.934 264.929 163.612 210.725 158.985 211.386C154.357 212.047 143.12 217.996 135.849 217.996C128.577 217.996 117.34 212.708 108.086 218.657C100.032 223.834 36.4108 288.585 20.0362 305.3" stroke="#B2B2B2" stroke-linecap="round" stroke-linejoin="round"/>
<path d="M365.212 259.386L397.902 290.865L388.216 261.202C388.216 261.202 380.952 247.278 380.952 242.435C380.952 237.592 385.795 236.987 385.795 236.987L368.529 196.843C361.919 196.843 330.19 231.878 330.19 231.878L353.104 261.807L365.212 259.386Z" fill="white" stroke="#B2B2B2" stroke-linecap="round" stroke-linejoin="round"/>
<path d="M250.867 264.929C242.935 264.929 163.612 210.725 158.985 211.386C154.357 212.047 143.12 217.996 135.849 217.996C128.578 217.996 117.34 212.708 108.086 218.657C104.255 221.12 87.8476 237.066 69.9351 254.907L84.3152 250.305L86.7367 256.359L110.347 227.301L125.481 249.7L135.773 254.543V232.749L140.01 228.511L149.696 233.96L154.539 225.484L175.122 261.202L155.145 254.543L189.046 316.897L196.311 314.475L233.844 359.273L255.638 347.166L243.53 314.475L258.06 324.161L284.696 301.157L292.566 296.919L315.571 304.789L311.333 282.39L333.127 290.26L347.05 282.39L334.337 265.44L327.678 254.543L336.154 252.727L318.291 227.251C312.342 224.606 258.799 264.929 250.867 264.929Z" fill="white" stroke="#B2B2B2" stroke-linecap="round" stroke-linejoin="round"/>
<path d="M192.068 384.289C192.068 384.289 331.311 301.762 333.732 299.946C336.154 298.13 355.526 321.74 355.526 321.74L372.477 325.978C372.477 325.978 378.53 330.215 382.163 333.242C385.795 336.269 406.378 357.457 406.378 357.457L424.539 362.906L445.431 383.292" stroke="#B2B2B2" stroke-linecap="round" stroke-linejoin="round"/>
<path d="M332.818 379.184L359.078 391.584L357.619 401.796L321.147 388.666C321.147 388.666 294.168 366.054 291.979 367.513C290.284 368.64 278.584 387.624 273.355 396.179C273.336 396.216 273.317 396.245 273.298 396.273L198.101 385.502L194.577 384.792L192.066 384.29C192.066 384.29 331.312 301.76 333.727 299.951L334.277 323.757L350.324 333.968L359.078 342.722L375.845 358.769L356.889 362.407L355.43 371.16L327.712 360.219L332.818 379.184Z" fill="white" stroke="#B2B2B2" stroke-linecap="round" stroke-linejoin="round"/>
<path opacity="0.68" d="M273.298 396.273L309.078 401.398C275.383 427.733 184.981 467.88 115.41 418.971C115.41 418.971 90.4104 399.92 63.6868 366.243L198.101 385.502L273.298 396.273Z" fill="white"/>
<path d="M1 356.811L445.731 421.1" stroke="#263238" stroke-linecap="round" stroke-linejoin="round"/>
<path d="M241.437 167.718C241.437 167.718 225.96 176.331 216.943 186.29C207.926 196.25 204.561 202.171 204.561 206.343C204.561 210.515 205.234 212.13 205.369 212.803C205.503 213.476 205.099 214.822 205.503 216.706C205.907 218.59 201.6 217.379 211.29 221.013C220.98 224.646 229.593 228.684 232.285 228.146C234.977 227.607 236.188 224.108 236.188 224.108C236.188 224.108 246.955 210.515 259.605 200.691C272.256 190.866 286.253 167.987 279.793 159.912C273.333 151.837 241.437 167.718 241.437 167.718Z" fill="#263238" stroke="#263238" stroke-linecap="round" stroke-linejoin="round"/>
<path d="M203.081 230.03C203.081 230.03 200.254 259.503 199.985 261.522C199.716 263.541 199.043 264.887 201.197 266.098C203.35 267.309 210.617 269.059 212.502 268.655C214.386 268.251 223.134 237.163 223.134 237.163L203.081 230.03ZM203.754 259.099C202.946 262.464 201.466 261.118 201.466 261.118C201.466 261.118 202.004 252.505 202.139 251.832C202.273 251.159 205.099 249.275 205.099 249.275C205.099 249.275 204.561 255.735 203.754 259.099Z" fill="#F93737" stroke="#263238" stroke-linecap="round" stroke-linejoin="round"/>
<path d="M218.692 239.047C218.692 239.854 216.27 251.025 215.462 251.563C214.655 252.101 211.828 244.834 211.425 243.757C211.021 242.68 217.481 239.047 217.481 239.047C218.692 238.508 218.692 238.239 218.692 239.047ZM206.176 261.656C206.176 261.656 209.675 263.271 210.214 263.271C210.752 263.271 212.636 259.772 213.309 258.83C213.982 257.888 209.002 246.852 209.002 246.852L206.176 261.656ZM210.483 234.74L209.944 239.047L215.462 236.086L210.483 234.74Z" fill="#263238" stroke="#263238" stroke-linecap="round" stroke-linejoin="round"/>
<path d="M204.972 249.361C206.267 241.243 207.791 231.51 207.791 231.51L204.83 230.703C204.83 230.703 203.207 242.741 202.198 251.686C202.571 251.026 204.463 249.708 204.972 249.361Z" fill="#263238" stroke="#263238" stroke-linecap="round" stroke-linejoin="round"/>
<path d="M209.272 217.11C209.272 217.11 205.503 214.149 204.157 216.033C202.811 217.917 200.12 229.76 200.793 231.375C201.466 232.99 219.231 238.777 221.922 239.989C224.614 241.2 226.363 242.007 228.651 241.738C230.939 241.469 232.285 233.125 232.823 232.587C233.362 232.048 236.592 229.76 235.38 227.338C234.169 224.915 209.272 217.11 209.272 217.11Z" fill="white" stroke="#263238" stroke-linecap="round" stroke-linejoin="round"/>
<path d="M258.529 167.314C258.529 167.314 237.399 184.81 232.016 193.962C226.633 203.113 231.208 213.476 233.227 218.994C235.246 224.512 235.65 226.8 237.668 227.338C239.687 227.876 240.764 224.646 249.915 224.646C259.067 224.646 260.682 225.723 262.028 224.646C263.374 223.57 261.759 214.014 261.759 214.014C261.759 214.014 282.946 201.628 292.174 197.999C312.628 189.956 313.169 178.754 314.784 169.602C316.399 160.45 309.453 145.802 306.601 143.907C303.748 142.013 258.529 167.314 258.529 167.314Z" fill="#263238" stroke="#263238" stroke-linecap="round" stroke-linejoin="round"/>
<path d="M251.322 174.041C251.322 174.041 233.235 187.83 230.012 195.889C226.789 203.947 234.668 223.108 234.668 223.108" stroke="#9F9F9F" stroke-linecap="round" stroke-linejoin="round"/>
<path d="M261.355 213.072C261.355 213.072 259.74 206.074 256.375 202.44C253.011 198.807 245.609 198.537 245.609 198.537" stroke="#9F9F9F" stroke-linecap="round" stroke-linejoin="round"/>
<path d="M264.854 227.742C264.854 227.742 264.854 223.57 261.759 222.359C258.663 221.147 241.033 223.166 239.014 225.454C236.995 227.742 238.072 229.491 239.014 230.837C239.956 232.183 240.091 232.856 240.091 232.856C240.091 232.856 236.323 236.759 237.399 241.469C238.476 246.18 240.226 248.468 240.226 248.468C240.226 248.468 237.938 252.505 237.803 253.851C237.668 255.197 237.938 256.543 237.938 256.543C237.938 256.543 231.208 260.715 229.459 262.06C227.709 263.406 227.709 265.425 227.978 266.771C228.248 268.117 230.536 268.655 234.169 268.655C237.803 268.655 255.299 263.002 261.624 260.715C267.949 258.427 272.794 255.331 272.929 251.697C273.064 248.064 268.219 240.123 268.219 240.123C268.219 240.123 270.507 236.086 269.026 233.125C267.546 230.164 264.854 227.742 264.854 227.742Z" fill="#474747" stroke="#263238" stroke-linecap="round" stroke-linejoin="round"/>
<path d="M243.963 231.904C243.963 231.904 249.504 228.342 262.367 229.331" stroke="#263238" stroke-linecap="round" stroke-linejoin="round"/>
<path d="M265.929 239.028C265.929 239.028 249.702 236.257 239.61 236.851" stroke="#263238" stroke-linecap="round" stroke-linejoin="round"/>
<path d="M240.797 246.152C240.797 246.152 248.317 241.007 261.575 240.215" stroke="#263238" stroke-linecap="round" stroke-linejoin="round"/>
<path d="M247.525 244.173C247.525 244.173 262.763 242.985 270.084 246.35" stroke="#263238" stroke-linecap="round" stroke-linejoin="round"/>
<path d="M272.875 250.824C258.566 247.438 237.938 256.542 237.938 256.542C237.938 256.542 231.208 260.714 229.459 262.06C227.709 263.406 227.709 265.425 227.978 266.771C228.248 268.117 230.536 268.655 234.169 268.655C237.803 268.655 255.299 263.002 261.624 260.714C267.95 258.427 272.794 255.331 272.929 251.697C272.939 251.43 272.915 251.133 272.875 250.824Z" fill="#636363" stroke="#263238" stroke-linecap="round" stroke-linejoin="round"/>
<path d="M241.571 270.001C241.571 270.001 232.823 266.636 231.208 265.021C229.593 263.406 227.44 263.406 227.44 263.406C227.44 263.406 229.055 258.965 228.517 258.696C227.978 258.427 226.633 259.099 226.094 260.042C225.556 260.984 224.076 265.29 224.076 265.29C224.076 265.29 221.788 266.502 222.057 268.655C222.326 270.808 225.018 276.864 225.018 276.864L241.571 270.001Z" fill="white" stroke="#263238" stroke-linecap="round" stroke-linejoin="round"/>
<path d="M217.75 281.44C217.75 281.44 221.922 275.788 219.769 273.5C217.616 271.212 205.638 266.636 203.754 266.098C201.869 265.559 193.122 265.559 192.449 268.117C191.776 270.674 190.699 286.151 190.026 287.362C189.353 288.573 185.047 289.515 183.835 289.784C182.624 290.053 176.568 288.573 173.203 289.381C169.839 290.188 168.089 291.669 168.089 293.822C168.089 295.975 171.588 299.071 176.702 300.416C181.817 301.762 201.062 305.127 202.677 305.261C204.292 305.396 212.367 305.8 214.251 303.243C216.135 300.686 217.75 281.44 217.75 281.44Z" fill="#636363" stroke="#263238" stroke-linecap="round" stroke-linejoin="round"/>
<path d="M203.081 269.059C203.081 269.059 202.273 277.941 201.466 282.786C200.658 287.631 196.755 291.534 195.948 291.668" stroke="#9F9F9F" stroke-linecap="round" stroke-linejoin="round"/>
<path d="M193.256 272.423C193.256 272.423 196.755 270.404 201.062 270.808" stroke="#9F9F9F" stroke-linecap="round" stroke-linejoin="round"/>
<path d="M192.449 280.498C192.449 280.498 195.948 278.614 200.254 279.152" stroke="#9F9F9F" stroke-linecap="round" stroke-linejoin="round"/>
<path d="M191.641 286.151C191.641 286.151 196.082 284.536 199.043 285.747" stroke="#9F9F9F" stroke-linecap="round" stroke-linejoin="round"/>
<path d="M182.624 295.302C182.624 295.302 173.876 291.938 172.261 290.323C170.646 288.708 168.493 288.708 168.493 288.708C168.493 288.708 170.108 284.266 169.57 283.997C169.031 283.728 167.685 284.401 167.147 285.343C166.609 286.285 165.128 290.592 165.128 290.592C165.128 290.592 162.841 291.803 163.11 293.956C163.379 296.11 166.07 302.166 166.07 302.166L182.624 295.302Z" fill="white" stroke="#263238" stroke-linecap="round" stroke-linejoin="round"/>
<path d="M302.469 284.646C296.444 286.73 232.216 312.705 232.216 312.705C232.216 312.705 169.381 341.219 166.359 342.148C163.346 343.076 161.726 344.469 158.013 344.005C154.309 343.54 127.405 331.254 124.63 328.241C123.199 326.697 121.162 324.784 120.395 322.908C119.666 321.127 120.073 319.393 123.237 318.039C129.726 315.254 154.072 304.587 154.072 304.587C154.072 304.587 217.371 278.384 226.181 273.752C234.991 269.11 276.503 246.621 276.503 246.621C280.908 245.001 289.254 243.836 301.54 250.334C313.827 256.823 318.696 263.777 319.16 271.204V271.289C319.539 278.65 308.474 282.571 302.469 284.646Z" fill="#263238" stroke="#263238" stroke-linecap="round" stroke-linejoin="round"/>
<path d="M302.469 284.646C296.444 286.73 232.216 312.705 232.216 312.705C232.216 312.705 169.381 341.22 166.359 342.148C163.346 343.076 161.726 344.469 158.013 344.005C154.309 343.54 127.405 331.254 124.63 328.241C123.199 326.697 121.162 324.784 120.395 322.908C120.66 321.885 121.57 320.938 123.464 320.123C129.963 317.338 154.309 306.671 154.309 306.671C154.309 306.671 217.608 280.478 226.418 275.836C235.228 271.204 276.73 248.705 276.73 248.705C281.135 247.085 289.481 245.929 301.777 252.419C312.955 258.32 317.995 264.62 319.16 271.289C319.539 278.65 308.474 282.571 302.469 284.646Z" fill="#F93737" stroke="#263238" stroke-linecap="round" stroke-linejoin="round"/>
<path d="M284.536 69.884C284.536 69.884 286.138 65.2575 288.095 64.5457C290.052 63.834 294.323 63.3002 294.323 63.3002C294.323 63.3002 304.11 54.937 311.761 51.3782C319.413 47.8193 322.082 46.2179 324.573 47.4634C327.064 48.709 330.623 59.9193 329.199 63.4781C327.776 67.037 322.794 74.8663 314.964 79.8487C307.135 84.831 295.391 87.1442 295.391 87.1442L290.053 90.3472C290.053 90.3472 286.316 81.806 284.536 69.884Z" fill="white" stroke="#263238" stroke-linecap="round" stroke-linejoin="round"/>
<path d="M162.107 34.6087C162.107 34.6087 159.534 33.0884 158.715 31.9188C157.896 30.7493 153.335 23.6152 152.516 21.9777C151.698 20.3404 150.996 18.7031 150.996 18.7031C150.996 18.7031 147.838 9.22985 146.552 7.35863C145.265 5.48731 144.33 4.90253 143.979 6.53996C143.628 8.17729 143.394 10.2824 143.394 10.2824C143.394 10.2824 142.341 9.22985 142.341 13.2063C142.341 17.1827 142.575 22.2117 142.926 23.7321C143.277 25.2525 144.447 30.1645 144.681 31.334C144.914 32.5036 145.148 33.4392 145.148 33.4392C145.148 33.4392 142.692 33.6731 143.16 36.1291C143.628 38.5851 146.669 38.5851 147.02 38.5851C147.37 38.5851 148.423 39.5208 148.423 39.5208C148.423 39.5208 150.996 44.0819 151.23 44.4328C151.464 44.7837 154.855 47.8245 155.44 45.7193C156.025 43.6141 155.089 39.6377 158.247 37.7665C161.405 35.8952 162.574 36.8308 162.107 34.6087Z" fill="#263238" stroke="#263238" stroke-linecap="round" stroke-linejoin="round"/>
<path d="M145.148 33.4391L147.254 37.2986" stroke="#263238" stroke-linecap="round" stroke-linejoin="round"/>
<path d="M192.638 54.4167C192.638 54.4167 189.871 52.3008 188.08 48.8827C186.29 45.4647 180.593 39.768 174.408 37.3265C168.223 34.8851 163.666 34.0712 163.666 34.0712C163.666 34.0712 156.992 33.0947 154.388 39.2796C151.784 45.4647 154.713 50.9986 157.155 52.1381C159.596 53.2774 160.898 54.254 160.898 54.254C160.898 54.254 163.503 61.7412 168.711 66.2986C173.92 70.8559 176.631 75.0672 179.398 77.1831C182.165 79.299 181.895 83.3887 185.801 90.3876C190.029 97.9628 193.109 106.051 197.909 113.334C205.938 125.517 218.077 134.254 227.624 145.143C233.648 152.014 236.635 160.286 239.517 168.819C239.517 168.819 248.592 172.734 252.151 172.556C255.71 172.378 261.938 165.794 266.208 164.548C270.479 163.303 280.622 158.676 291.654 153.516C302.303 148.535 304.828 144.383 304.991 144.1C304.844 144.356 306.059 144.696 306.21 144.7C307.331 142.361 304.55 139.3 303.046 137.565C298.773 132.632 294.103 127.855 290.141 122.671C288.101 120.002 283.705 114.426 282.638 110.447C282.08 108.366 281.321 106.335 280.554 104.321C278.744 99.5749 278.308 97.2867 278.308 97.2867C278.308 97.2867 289.163 91.2368 290.053 90.3471C290.942 89.4574 290.408 87.3221 289.697 85.7206C288.985 84.1192 286.85 76.6457 286.316 73.6206C285.782 70.5957 286.494 68.2824 285.426 67.2148C284.358 66.1472 283.647 66.1472 282.935 66.3251C282.223 66.503 274.928 68.1045 272.436 68.6383C269.945 69.1722 264.607 70.5957 263.539 70.7736C262.472 70.9516 252.151 70.7736 251.439 70.9516C250.728 71.1295 247.881 70.0619 246.991 70.0619C246.101 70.0619 240.051 68.9943 238.984 68.6383C237.916 68.2824 230.172 68.547 229.418 67.7919C228.663 67.0369 210.335 62.2324 210.335 62.2324C210.335 62.2324 205.175 59.3854 204.641 59.2075C204.107 59.0296 192.638 54.4167 192.638 54.4167Z" fill="#F93737" stroke="#263238" stroke-linecap="round" stroke-linejoin="round"/>
<path d="M235.932 82.5524C235.932 82.5524 237.365 69.2979 242.738 67.2679C248.111 65.238 254.44 62.0139 259.575 56.6404C264.71 51.2669 260.53 48.5205 263.157 44.2218C265.784 39.923 266.74 39.4453 266.74 39.4453L245.723 35.8631C245.723 35.8631 242.38 42.1918 244.171 46.3711C245.962 50.5505 245.126 54.491 240.23 56.8792C235.335 59.2674 229.722 61.5363 226.976 64.2826C224.229 67.029 228.528 75.6266 230.081 77.2984C231.633 78.9701 235.932 82.5524 235.932 82.5524Z" fill="#263238" stroke="#263238" stroke-linecap="round" stroke-linejoin="round"/>
<path d="M200.216 95.9867C200.216 95.9867 198.079 99.031 199.034 100.225C199.989 101.419 202.139 102.136 202.258 102.494C202.377 102.852 200.467 104.166 203.094 105.957C205.721 107.748 215.035 110.733 224.229 106.912C233.424 103.091 236.409 91.7469 236.529 88.1647C236.648 84.5823 234.26 74.6713 232.111 72.5219C229.961 70.3725 228.051 70.3725 228.051 70.3725C228.051 70.3725 227.454 84.8211 221.244 90.5528C215.035 96.2845 200.216 95.9867 200.216 95.9867Z" fill="#263238" stroke="#263238" stroke-linecap="round" stroke-linejoin="round"/>
<path d="M203.691 102.613C203.691 102.613 204.738 104.714 212.167 105.953C218.864 107.069 225.358 104.836 229.722 101.061" stroke="#9F9F9F" stroke-linecap="round" stroke-linejoin="round"/>
<path d="M222.72 102.502C222.72 102.502 230.558 98.9115 233.066 89.8363" stroke="#9F9F9F" stroke-linecap="round" stroke-linejoin="round"/>
<path d="M193.075 49.7372C193.075 49.7372 187.95 53.8142 186.319 59.1724C184.688 64.5305 188.183 74.6646 188.998 78.392C189.813 82.1195 197.385 94.1172 198.666 95.9809C199.947 97.8446 205.189 102.271 213.692 100.524C222.196 98.7765 227.088 92.4865 228.369 84.4491C229.65 76.4118 230.233 69.6558 229.418 67.792C228.602 65.9284 225.108 57.891 224.292 56.1438C223.477 54.3966 220.448 47.8735 211.013 45.4274C201.578 42.9813 193.075 49.7372 193.075 49.7372Z" fill="#263238" stroke="#263238" stroke-linecap="round" stroke-linejoin="round"/>
<path d="M228.86 81.1834L225.199 74.2614C219.828 81.5753 193.54 87.682 193.54 87.682C195.731 91.4557 198.014 95.0319 198.666 95.9808C199.947 97.8446 205.189 102.271 213.692 100.524C222.196 98.7764 227.088 92.4863 228.369 84.449C228.547 83.3313 228.71 82.242 228.86 81.1834Z" fill="white" stroke="#263238" stroke-linecap="round" stroke-linejoin="round"/>
<path d="M202.626 96.7961C207.752 98.0774 207.752 96.0973 208.451 95.1654C209.149 94.2334 209.848 89.6907 212.295 90.3895C214.741 91.0885 217.42 93.7676 219.749 92.3698C222.079 90.9719 225.574 85.7303 227.204 83.2841C227.991 82.1045 228.339 80.9856 228.493 80.1364C227.596 78.32 225.143 73.5305 223.826 72.6842C222.196 71.6359 219.749 73.849 219.749 73.849C219.749 73.849 215.44 77.1105 208.334 79.5567C201.229 82.0028 197.385 82.3523 194.589 82.2357C191.794 82.1193 192.26 83.1676 192.958 85.7303C193.074 86.1553 193.269 86.8369 193.54 87.6819C195.097 90.3642 196.698 92.9415 197.729 94.5516C198.765 95.3457 200.331 96.2223 202.626 96.7961Z" fill="white" stroke="#263238" stroke-linecap="round" stroke-linejoin="round"/>
<path d="M210.198 94.4665C210.198 94.4665 210.78 95.5148 212.295 95.6314C213.809 95.7479 214.508 93.8841 214.624 93.5347" stroke="#263238" stroke-linecap="round" stroke-linejoin="round"/>
<path d="M210.314 98.7764C210.314 98.7764 214.624 98.7764 217.187 97.0291" stroke="#263238" stroke-linecap="round" stroke-linejoin="round"/>
<path d="M194.589 82.2359C194.36 82.2263 194.16 82.2276 193.973 82.234L200.216 95.9867C200.846 96.2591 201.563 96.5103 202.372 96.7257L196.103 82.2456C195.563 82.2601 195.059 82.2555 194.589 82.2359Z" fill="#F93737"/>
<path d="M219.078 74.3199L224.965 86.5538C225.85 85.313 226.64 84.1305 227.204 83.2842C227.991 82.1046 228.339 80.9856 228.493 80.1364C227.596 78.3201 225.143 73.5306 223.826 72.6842C222.196 71.6359 219.749 73.849 219.749 73.849C219.749 73.849 219.513 74.0265 219.078 74.3199Z" fill="#F93737"/>
<path d="M207.935 79.6906L212.699 90.5236C214.001 90.9968 215.357 91.9211 216.685 92.4232L210.737 78.6588C209.976 78.9649 209.176 79.2668 208.334 79.5567C208.197 79.6038 208.07 79.645 207.935 79.6906Z" fill="#F93737"/>
<path d="M202.626 96.7961C207.752 98.0774 207.752 96.0973 208.451 95.1654C209.149 94.2335 209.848 89.6907 212.295 90.3895C214.741 91.0885 217.42 93.7676 219.749 92.3698C222.079 90.9719 225.574 85.7303 227.204 83.2841C227.991 82.1045 228.339 80.9856 228.493 80.1364C227.596 78.32 225.143 73.5305 223.826 72.6842C222.196 71.6359 219.749 73.849 219.749 73.849C219.749 73.849 215.44 77.1105 208.334 79.5567C201.229 82.0028 197.385 82.3523 194.589 82.2357C191.794 82.1193 192.26 83.1676 192.958 85.7303C193.074 86.1553 193.269 86.8369 193.54 87.6819C195.097 90.3642 196.698 92.9415 197.729 94.5516C198.765 95.3457 200.331 96.2223 202.626 96.7961Z" stroke="#263238" stroke-linecap="round" stroke-linejoin="round"/>
<path d="M223.826 72.6843L227.204 62.4338L229.418 67.792L228.493 80.1365C228.493 80.1365 224.875 73.0336 223.826 72.6843Z" fill="white" stroke="#263238" stroke-linecap="round" stroke-linejoin="round"/>
<path d="M324.573 47.4634C324.573 47.4634 322.918 50.2803 323.502 54.8415C324.087 59.4027 327.83 63.496 330.169 63.496C332.508 63.496 335.899 60.3383 336.484 59.5196C337.069 58.7009 337.654 57.0636 337.654 57.0636C337.654 57.0636 339.291 56.7127 339.993 55.894C340.695 55.0754 341.045 53.9058 341.045 53.9058C341.045 53.9058 345.957 51.3328 346.425 50.982C346.893 50.6312 352.741 48.1752 355.782 45.8361C358.822 43.497 362.097 43.497 362.916 41.6257C363.734 39.7545 362.916 38.8189 361.278 38.9358C359.641 39.0527 356.483 40.6902 354.963 41.2749C353.442 41.8596 352.741 41.3918 352.741 41.041C352.741 40.6902 356.834 38.3511 357.887 38.0002C358.939 37.6493 365.255 37.7663 365.956 37.1815C366.658 36.5967 364.553 34.7255 364.553 34.7255C364.553 34.7255 364.67 32.9712 363.033 32.3864C361.395 31.8016 354.144 31.2169 354.144 31.2169C354.144 31.2169 362.331 28.1761 362.448 27.2405C362.565 26.3049 362.214 24.6675 359.875 25.3692C357.536 26.071 349.115 28.9948 349.115 28.9948C349.115 28.9948 350.168 28.0592 352.741 27.0065C355.314 25.954 356.366 23.8489 355.08 22.7962C353.793 21.7437 348.53 24.6675 346.308 27.0065C344.086 29.3456 341.981 31.9186 340.11 34.8424C338.238 37.7663 336.718 41.6257 336.484 41.9766C336.25 42.3275 331.455 44.4326 330.87 44.7835C330.286 45.1344 326.462 44.8803 324.573 47.4634Z" fill="#263238" stroke="#263238" stroke-linecap="round" stroke-linejoin="round"/>
<path d="M278.308 97.2869C278.308 97.2869 265.26 107.588 263.505 108.64C261.751 109.693 257.541 110.745 253.681 105.95" stroke="#263238" stroke-linecap="round" stroke-linejoin="round"/>
<path d="M249.588 106.418C249.588 106.418 252.862 111.33 260.815 112.032" stroke="#263238" stroke-linecap="round" stroke-linejoin="round"/>
<path d="M246.377 82.6655C245.736 84.65 245.231 86.8283 245.027 89.1089" stroke="#263238" stroke-linecap="round" stroke-linejoin="round"/>
<path d="M251.459 72.5015C251.459 72.5015 249.025 75.7469 247.129 80.5682" stroke="#263238" stroke-linecap="round" stroke-linejoin="round"/>
<path d="M243.857 84.1968C243.857 84.1968 241.284 89.6936 242.454 97.0617" stroke="#263238" stroke-linecap="round" stroke-linejoin="round"/>
<path d="M220.725 116.996C222.57 117.393 224.451 117.668 226.314 117.762" stroke="#263238" stroke-linecap="round" stroke-linejoin="round"/>
<path d="M202.456 109.576C202.456 109.576 209.04 113.652 217.112 116.064" stroke="#263238" stroke-linecap="round" stroke-linejoin="round"/>
<path d="M236.138 100.921C236.138 100.921 231.46 109.576 223.975 111.447" stroke="#263238" stroke-linecap="round" stroke-linejoin="round"/>
<path d="M174.408 37.3265C168.223 34.885 163.666 34.0712 163.666 34.0712C163.666 34.0712 156.992 33.0947 154.388 39.2796C151.784 45.4646 154.713 50.9986 157.155 52.1381C159.596 53.2774 160.898 54.254 160.898 54.254C160.898 54.254 163.503 61.7412 168.711 66.2985C169.691 67.1554 170.581 68 171.401 68.8209C169.91 64.2961 169.336 58.5918 172.943 53.7821C176.321 49.278 181.619 47.2196 186.321 46.3047C183.707 43.0751 179.209 39.2217 174.408 37.3265Z" fill="white" stroke="#263238" stroke-linecap="round" stroke-linejoin="round"/>
<path d="M304.355 146.961C305.178 146.293 305.862 145.515 306.252 144.585C307.311 142.062 304.536 139.284 303.046 137.565C298.773 132.632 294.103 127.855 290.141 122.671C289.709 122.106 289.17 121.408 288.58 120.624C284.141 126.273 275.813 135.495 264.471 140.556C248.756 147.567 234.069 144.654 226.279 143.65C226.731 144.145 227.183 144.64 227.624 145.143C233.648 152.014 236.635 160.286 239.517 168.819C239.517 168.819 248.592 172.734 252.151 172.556C255.71 172.378 261.938 165.794 266.208 164.548C270.479 163.303 280.622 158.676 291.654 153.516C294.321 152.269 296.988 151.016 299.618 149.692C301.067 148.962 302.922 148.128 304.355 146.961Z" fill="white" stroke="#263238" stroke-linecap="round" stroke-linejoin="round"/>
<path d="M301.008 141.053C301.008 141.053 289.408 150.956 279.789 155.483" stroke="#263238" stroke-linecap="round" stroke-linejoin="round"/>
<path d="M299.028 137.092C299.028 137.092 295.067 141.902 290.54 145.297" stroke="#263238" stroke-linecap="round" stroke-linejoin="round"/>
<path d="M165.5 38.8436C165.5 38.8436 162.262 42.081 162.262 51.295" stroke="#263238" stroke-linecap="round" stroke-linejoin="round"/>
<path d="M159.772 44.5712C159.772 44.5712 159.642 48.834 160.27 51.544" stroke="#263238" stroke-linecap="round" stroke-linejoin="round"/>
<path d="M299.01 76.9294C299.757 78.7504 300.722 80.4313 301.967 81.6764" stroke="#263238" stroke-linecap="round" stroke-linejoin="round"/>
<path d="M296.489 64.7425C296.489 64.7425 296.695 69.7063 298.175 74.5693" stroke="#263238" stroke-linecap="round" stroke-linejoin="round"/>
<path d="M290.512 74.7036C290.512 74.7036 292.753 78.937 297.734 82.1745" stroke="#263238" stroke-linecap="round" stroke-linejoin="round"/>
<path d="M227.73 137.092C227.73 137.092 251.514 147.264 271.584 150.39" stroke="#263238" stroke-linecap="round" stroke-linejoin="round"/>
<path d="M249.516 150.673C249.516 150.673 267.906 154.917 273.281 154.068" stroke="#263238" stroke-linecap="round" stroke-linejoin="round"/>
<path d="M106.96 345.15C107.414 346.918 110.505 347.653 113.864 346.792C117.224 345.931 119.58 343.799 119.126 342.031C118.673 340.263 115.582 339.528 112.223 340.389C108.863 341.25 106.507 343.382 106.96 345.15Z" fill="white" stroke="#263238" stroke-linecap="round" stroke-linejoin="round"/>
<path d="M151.93 345.564C152.383 347.332 155.474 348.067 158.834 347.206C162.193 346.345 164.549 344.213 164.096 342.445C163.643 340.677 160.552 339.942 157.192 340.803C153.833 341.664 151.477 343.796 151.93 345.564Z" fill="white" stroke="#263238" stroke-linecap="round" stroke-linejoin="round"/>
<path d="M112.83 354.126C113.057 355.01 114.602 355.377 116.282 354.947C117.961 354.516 119.139 353.45 118.913 352.566C118.686 351.682 117.141 351.314 115.461 351.745C113.781 352.176 112.603 353.242 112.83 354.126Z" fill="white" stroke="#263238" stroke-linecap="round" stroke-linejoin="round"/>
<path d="M137.171 350.201C137.397 351.085 138.943 351.452 140.623 351.022C142.302 350.591 143.48 349.525 143.254 348.641C143.027 347.757 141.482 347.39 139.802 347.82C138.122 348.251 136.944 349.317 137.171 350.201Z" fill="white" stroke="#263238" stroke-linecap="round" stroke-linejoin="round"/>
<path d="M100.815 368.048C101.041 368.932 102.587 369.3 104.266 368.869C105.946 368.439 107.124 367.373 106.898 366.489C106.671 365.605 105.125 365.237 103.446 365.668C101.766 366.098 100.588 367.164 100.815 368.048Z" fill="white" stroke="#263238" stroke-linecap="round" stroke-linejoin="round"/>
<path d="M129.502 299.421C129.729 300.305 131.274 300.672 132.954 300.242C134.634 299.811 135.812 298.745 135.585 297.861C135.359 296.977 133.813 296.609 132.133 297.04C130.454 297.471 129.276 298.537 129.502 299.421Z" fill="white" stroke="#263238" stroke-linecap="round" stroke-linejoin="round"/>
<path d="M127.916 340.946C128.143 341.831 129.689 342.198 131.368 341.767C133.048 341.337 134.226 340.271 133.999 339.387C133.773 338.503 132.227 338.135 130.548 338.566C128.868 338.997 127.69 340.062 127.916 340.946Z" fill="white" stroke="#263238" stroke-linecap="round" stroke-linejoin="round"/>
</svg>
